<?xml version="1.0" encoding="UTF-8" standalone="no"?>
<!-- Created with Inkscape (http://www.inkscape.org/) -->

<svg
   xmlns:dc="http://purl.org/dc/elements/1.1/"
   xmlns:cc="http://creativecommons.org/ns#"
   xmlns:rdf="http://www.w3.org/1999/02/22-rdf-syntax-ns#"
   xmlns:svg="http://www.w3.org/2000/svg"
   xmlns="http://www.w3.org/2000/svg"
   xmlns:xlink="http://www.w3.org/1999/xlink"
   xmlns:sodipodi="http://sodipodi.sourceforge.net/DTD/sodipodi-0.dtd"
   xmlns:inkscape="http://www.inkscape.org/namespaces/inkscape"
   width="64px"
   height="64px"
   id="svg9049"
   version="1.1"
   inkscape:version="0.48.0 r9654"
   sodipodi:docname="quit.svg"
   inkscape:export-filename="/home/tc/Projects/nihondrill/images/quit.png"
   inkscape:export-xdpi="90"
   inkscape:export-ydpi="90">
  <defs
     id="defs9051">
    <linearGradient
       id="linearGradient9580">
      <stop
         style="stop-color:#ff3333;stop-opacity:1;"
         offset="0"
         id="stop9582" />
      <stop
         style="stop-color:#b30000;stop-opacity:1;"
         offset="1"
         id="stop9584" />
    </linearGradient>
    <linearGradient
       inkscape:collect="always"
       xlink:href="#linearGradient9580"
       id="linearGradient9600"
       gradientUnits="userSpaceOnUse"
       gradientTransform="matrix(0.98107531,0,0,0.96829408,0.79099163,-0.27939027)"
       x1="18.792"
       y1="21.642305"
       x2="48.920147"
       y2="62.687637" />
    <linearGradient
       inkscape:collect="always"
       xlink:href="#linearGradient9580"
       id="linearGradient9602"
       gradientUnits="userSpaceOnUse"
       gradientTransform="matrix(2.3597655,0,0,1.0395667,42.333183,2.2959661)"
       x1="-26.949177"
       y1="-20.252909"
       x2="-43.123104"
       y2="-26.994242" />
    <linearGradient
       inkscape:collect="always"
       xlink:href="#linearGradient9580"
       id="linearGradient10155"
       gradientUnits="userSpaceOnUse"
       gradientTransform="matrix(0.98107531,0,0,0.96829408,0.79099163,-0.27939027)"
       x1="18.792"
       y1="21.642305"
       x2="48.920147"
       y2="62.687637" />
    <linearGradient
       inkscape:collect="always"
       xlink:href="#linearGradient9580"
       id="linearGradient10162"
       gradientUnits="userSpaceOnUse"
       gradientTransform="matrix(1.0228538,0,0,0.90930988,-0.2289249,-2.3105114)"
       x1="-26.949177"
       y1="-20.252909"
       x2="-43.123104"
       y2="-26.994242" />
  </defs>
  <sodipodi:namedview
     id="base"
     pagecolor="#ffffff"
     bordercolor="#666666"
     borderopacity="1.0"
     inkscape:pageopacity="0.0"
     inkscape:pageshadow="2"
     inkscape:zoom="11.71875"
     inkscape:cx="28.723904"
     inkscape:cy="32.410826"
     inkscape:current-layer="layer1"
     showgrid="true"
     inkscape:document-units="px"
     inkscape:grid-bbox="true"
     inkscape:window-width="1680"
     inkscape:window-height="973"
     inkscape:window-x="0"
     inkscape:window-y="24"
     inkscape:window-maximized="1" />
  <metadata
     id="metadata9054">
    <rdf:RDF>
      <cc:Work
         rdf:about="">
        <dc:format>image/svg+xml</dc:format>
        <dc:type
           rdf:resource="http://purl.org/dc/dcmitype/StillImage" />
        <dc:title></dc:title>
      </cc:Work>
    </rdf:RDF>
  </metadata>
  <g
     id="layer1"
     inkscape:label="Layer 1"
     inkscape:groupmode="layer">
    <path
       style="fill:#30322e;fill-opacity:0.30932204;fill-rule:nonzero;stroke:none"
       d="m 35.614545,63.063057 c 14.58137,0 26.411968,-11.571596 26.411968,-25.833745 0,-12.04504 -8.454342,-22.105197 -19.861381,-24.962367 l 0,9.687654 c 6.90923,2.368671 11.843463,8.264169 11.843463,15.274713 0,9.082941 -8.238461,16.453636 -18.39405,16.453636 -10.15559,0 -18.341645,-7.370695 -18.341645,-16.453636 0,-6.51027 4.306592,-12.043521 10.428535,-14.710882 l 0,-9.790168 C 17.021908,16.033874 9.2549827,25.681236 9.2549827,37.229312 c 0,14.262149 11.7781913,25.833745 26.3595623,25.833745 z"
       id="path9059"
       inkscape:connector-curvature="0" />
    <rect
       style="fill:#30322e;fill-opacity:0.30932204;fill-rule:nonzero;stroke:none"
       id="rect9578"
       width="8.0154572"
       height="33.620285"
       x="-39.819351"
       y="-39.099312"
       transform="scale(-1,-1)" />
    <path
       style="fill:url(#linearGradient10155);fill-opacity:1;fill-rule:nonzero;stroke:#000000;stroke-width:3;stroke-linejoin:round;stroke-opacity:1;stroke-miterlimit:4;stroke-dasharray:none"
       d="M 23.15625 10.0625 C 13.381532 13.833198 6.40625 22.962629 6.40625 33.875 C 6.40625 48.13715 18.19988 59.71875 32.78125 59.71875 C 47.362621 59.71875 59.1875 48.13715 59.1875 33.875 C 59.1875 22.970272 52.213847 13.747799 42.4375 9.96875 L 42.4375 20.15625 C 47.613918 23.047861 51.15625 28.008467 51.15625 33.875 C 51.15625 42.957942 42.93684 50.34375 32.78125 50.34375 C 22.62566 50.34375 14.4375 42.957942 14.4375 33.875 C 14.4375 28.022542 18.005532 23.088643 23.15625 20.1875 L 23.15625 10.0625 z "
       id="path10158" />
    <rect
       transform="scale(-1,-1)"
       y="-35.659279"
       x="-36.971039"
       height="31.572285"
       width="8.3567905"
       id="rect9598"
       style="fill:url(#linearGradient10162);fill-opacity:1;fill-rule:nonzero;stroke:#000000;stroke-width:3;stroke-linecap:round;stroke-linejoin:round;stroke-miterlimit:4;stroke-opacity:1;stroke-dasharray:none" />
  </g>
</svg>
