<?xml version="1.0" encoding="UTF-8" standalone="no"?>
<!-- Created with Inkscape (http://www.inkscape.org/) -->

<svg
   xmlns:dc="http://purl.org/dc/elements/1.1/"
   xmlns:cc="http://creativecommons.org/ns#"
   xmlns:rdf="http://www.w3.org/1999/02/22-rdf-syntax-ns#"
   xmlns:svg="http://www.w3.org/2000/svg"
   xmlns="http://www.w3.org/2000/svg"
   xmlns:xlink="http://www.w3.org/1999/xlink"
   xmlns:sodipodi="http://sodipodi.sourceforge.net/DTD/sodipodi-0.dtd"
   xmlns:inkscape="http://www.inkscape.org/namespaces/inkscape"
   width="64px"
   height="64px"
   id="svg9049"
   version="1.1"
   inkscape:version="0.48.0 r9654"
   sodipodi:docname="quit.svg"
   inkscape:export-filename="/home/tc/Projects/nihondrill/images/quit.png"
   inkscape:export-xdpi="180"
   inkscape:export-ydpi="180">
  <defs
     id="defs9051">
    <linearGradient
       id="linearGradient9580">
      <stop
         style="stop-color:#ff3333;stop-opacity:1;"
         offset="0"
         id="stop9582" />
      <stop
         style="stop-color:#b30000;stop-opacity:1;"
         offset="1"
         id="stop9584" />
    </linearGradient>
    <linearGradient
       inkscape:collect="always"
       xlink:href="#linearGradient9580"
       id="linearGradient9600"
       gradientUnits="userSpaceOnUse"
       gradientTransform="matrix(0.98107531,0,0,0.96829408,0.79099163,-0.27939027)"
       x1="18.792"
       y1="21.642305"
       x2="48.920147"
       y2="62.687637" />
    <linearGradient
       inkscape:collect="always"
       xlink:href="#linearGradient9580"
       id="linearGradient9602"
       gradientUnits="userSpaceOnUse"
       gradientTransform="matrix(0.98107531,0,0,0.96829408,-0.79099163,0.27939027)"
       x1="-26.949177"
       y1="-20.252909"
       x2="-43.123104"
       y2="-26.994242" />
  </defs>
  <sodipodi:namedview
     id="base"
     pagecolor="#ffffff"
     bordercolor="#666666"
     borderopacity="1.0"
     inkscape:pageopacity="0.0"
     inkscape:pageshadow="2"
     inkscape:zoom="11.71875"
     inkscape:cx="16.256"
     inkscape:cy="31.589174"
     inkscape:current-layer="layer1"
     showgrid="true"
     inkscape:document-units="px"
     inkscape:grid-bbox="true"
     inkscape:window-width="1680"
     inkscape:window-height="973"
     inkscape:window-x="0"
     inkscape:window-y="24"
     inkscape:window-maximized="1" />
  <metadata
     id="metadata9054">
    <rdf:RDF>
      <cc:Work
         rdf:about="">
        <dc:format>image/svg+xml</dc:format>
        <dc:type
           rdf:resource="http://purl.org/dc/dcmitype/StillImage" />
        <dc:title></dc:title>
      </cc:Work>
    </rdf:RDF>
  </metadata>
  <g
     id="layer1"
     inkscape:label="Layer 1"
     inkscape:groupmode="layer">
    <path
       style="fill:#30322e;fill-opacity:0.30932204;fill-rule:nonzero;stroke:none"
       d="m 35.614545,63.063057 c 14.58137,0 26.411968,-11.571596 26.411968,-25.833745 0,-12.04504 -8.454342,-22.105197 -19.861381,-24.962367 l 0,9.687654 c 6.90923,2.368671 11.843463,8.264169 11.843463,15.274713 0,9.082941 -8.238461,16.453636 -18.39405,16.453636 -10.15559,0 -18.341645,-7.370695 -18.341645,-16.453636 0,-6.51027 4.306592,-12.043521 10.428535,-14.710882 l 0,-9.790168 C 17.021908,16.033874 9.2549827,25.681236 9.2549827,37.229312 c 0,14.262149 11.7781913,25.833745 26.3595623,25.833745 z"
       id="path9059"
       inkscape:connector-curvature="0" />
    <rect
       style="fill:#30322e;fill-opacity:0.30932204;fill-rule:nonzero;stroke:none"
       id="rect9578"
       width="8.0154572"
       height="33.620285"
       x="-38.880684"
       y="-38.587311"
       transform="scale(-1,-1)" />
    <path
       inkscape:connector-curvature="0"
       id="path9596"
       d="m 32.766229,59.708361 c 14.581371,0 26.411968,-11.571595 26.411968,-25.833745 0,-12.04504 -8.454341,-22.105197 -19.861381,-24.9623669 l 0,9.6876539 c 6.909231,2.368671 11.843463,8.26417 11.843463,15.274713 0,9.082942 -8.23846,16.453637 -18.39405,16.453637 -10.15559,0 -18.341645,-7.370695 -18.341645,-16.453637 0,-6.510269 4.306593,-12.04352 10.428535,-14.710882 l 0,-9.7901678 C 14.173592,12.679178 6.406667,22.326541 6.406667,33.874616 c 0,14.26215 11.778192,25.833745 26.359562,25.833745 z"
       style="fill:url(#linearGradient9600);fill-opacity:1;fill-rule:nonzero;stroke:#000000;stroke-width:1;stroke-linejoin:round;stroke-opacity:1" />
    <rect
       transform="scale(-1,-1)"
       y="-35.232613"
       x="-36.032372"
       height="33.620285"
       width="8.0154572"
       id="rect9598"
       style="fill:url(#linearGradient9602);fill-opacity:1;fill-rule:nonzero;stroke:#000000;stroke-width:1;stroke-linecap:round;stroke-linejoin:round;stroke-miterlimit:4;stroke-opacity:1;stroke-dasharray:none" />
  </g>
</svg>
