<?xml version="1.0" encoding="UTF-8" standalone="no"?>
<!-- Created with Inkscape (http://www.inkscape.org/) -->

<svg
   xmlns:dc="http://purl.org/dc/elements/1.1/"
   xmlns:cc="http://creativecommons.org/ns#"
   xmlns:rdf="http://www.w3.org/1999/02/22-rdf-syntax-ns#"
   xmlns:svg="http://www.w3.org/2000/svg"
   xmlns="http://www.w3.org/2000/svg"
   xmlns:xlink="http://www.w3.org/1999/xlink"
   xmlns:sodipodi="http://sodipodi.sourceforge.net/DTD/sodipodi-0.dtd"
   xmlns:inkscape="http://www.inkscape.org/namespaces/inkscape"
   width="64px"
   height="64px"
   id="svg2985"
   version="1.1"
   inkscape:version="0.48.0 r9654"
   sodipodi:docname="music.svg"
   inkscape:export-filename="/home/tc/Projects/nihondrill/images/nomusic.png"
   inkscape:export-xdpi="90"
   inkscape:export-ydpi="90">
  <defs
     id="defs2987">
    <linearGradient
       inkscape:collect="always"
       id="linearGradient3778">
      <stop
         style="stop-color:#000000;stop-opacity:1;"
         offset="0"
         id="stop3780" />
      <stop
         style="stop-color:#000000;stop-opacity:0;"
         offset="1"
         id="stop3782" />
    </linearGradient>
    <linearGradient
       inkscape:collect="always"
       xlink:href="#linearGradient3778"
       id="linearGradient3800"
       x1="66.664429"
       y1="77.095711"
       x2="0.76882017"
       y2="36.306374"
       gradientUnits="userSpaceOnUse"
       gradientTransform="matrix(1.0685587,0,0,1.0685587,-2.1628878,-2.4519846)" />
  </defs>
  <sodipodi:namedview
     id="base"
     pagecolor="#ffffff"
     bordercolor="#666666"
     borderopacity="1.0"
     inkscape:pageopacity="0.0"
     inkscape:pageshadow="2"
     inkscape:zoom="2.9996396"
     inkscape:cx="29.440005"
     inkscape:cy="26.197333"
     inkscape:current-layer="layer1"
     showgrid="true"
     inkscape:document-units="px"
     inkscape:grid-bbox="true"
     inkscape:window-width="1680"
     inkscape:window-height="973"
     inkscape:window-x="0"
     inkscape:window-y="24"
     inkscape:window-maximized="1" />
  <metadata
     id="metadata2990">
    <rdf:RDF>
      <cc:Work
         rdf:about="">
        <dc:format>image/svg+xml</dc:format>
        <dc:type
           rdf:resource="http://purl.org/dc/dcmitype/StillImage" />
        <dc:title></dc:title>
      </cc:Work>
    </rdf:RDF>
  </metadata>
  <g
     id="layer1"
     inkscape:label="Layer 1"
     inkscape:groupmode="layer">
    <path
       style="fill:url(#linearGradient3800);fill-opacity:1;stroke:#000000;stroke-width:2.50363302;stroke-miterlimit:4;stroke-opacity:1;stroke-dasharray:none"
       d="M 58.220225,2.436334 19.921688,2.5917033 20.698534,46.638907 c -1.962939,-1.504297 -4.64736,-2.408226 -7.535414,-2.408226 -6.0765953,0 -10.9535366,4.06692 -10.9535366,9.089106 0,5.022185 4.8769413,9.089104 10.9535366,9.089104 6.076599,0 11.031223,-4.066919 11.031223,-9.089104 -0.0062,-0.351691 0,-0.708281 0,-0.776847 l 0,-37.366323 30.14165,0 0,24.859092 c -1.918247,-1.345173 -4.434223,-2.175171 -7.14699,-2.175171 -6.076596,0 -10.953538,4.066921 -10.953538,9.089106 0,5.022187 4.876942,9.089106 10.953538,9.089106 6.076596,0 11.031222,-4.066919 11.031222,-9.089106 0.01372,-0.558281 6.4e-5,-0.690613 0,-1.242953 z"
       id="path2993"
       inkscape:connector-curvature="0"
       sodipodi:nodetypes="cccssscccccsssccc" />
    <path
       inkscape:connector-curvature="0"
       style="font-size:medium;font-style:normal;font-variant:normal;font-weight:normal;font-stretch:normal;text-indent:0;text-align:start;text-decoration:none;line-height:normal;letter-spacing:normal;word-spacing:normal;text-transform:none;direction:ltr;block-progression:tb;writing-mode:lr-tb;text-anchor:start;baseline-shift:baseline;color:#000000;fill:#ff0000;fill-opacity:1;stroke:#000000;stroke-width:1.14986086;stroke-miterlimit:4;stroke-opacity:1;stroke-dasharray:none;marker:none;visibility:visible;display:inline;overflow:visible;enable-background:accumulate;font-family:Sans;-inkscape-font-specification:Sans"
       d="M 4.7803533,1.1624045 A 3.3061807,3.3061807 0 0 0 2.4806315,6.8398429 L 27.490106,31.858301 2.4446983,56.903709 a 3.3094671,3.3094671 0 0 0 4.6802933,4.680293 L 32.170399,36.538595 57.215808,61.584002 a 3.3094671,3.3094671 0 1 0 4.680293,-4.680293 L 36.850693,31.858301 61.860168,6.8398429 A 3.3061807,3.3061807 0 0 0 59.560446,1.1624045 3.3061807,3.3061807 0 0 0 57.188857,2.1595495 L 32.170399,27.178007 7.1519414,2.1595495 A 3.3061807,3.3061807 0 0 0 4.7803533,1.1624045 z"
       id="path3777"
       inkscape:export-filename="/home/tc/Projects/kanadrill/images/nosound.png"
       inkscape:export-xdpi="41.387619"
       inkscape:export-ydpi="41.387619" />
  </g>
</svg>
